#!OML:ASF H:\LiuWeirdWalks\Patient Classification 1\Patient 1\Session 1\male.ASF
:FULLY-SPECIFIED
:DEGREES
315
root 0.497331 19.7884 -14.116 6.2678 6.67383 3.57794
lowerback 3.4696 -1.51272 -2.73065
upperback -2.29398 -2.06305 2.66538
thorax -4.12489 -0.907509 4.44039
lowerneck -26.4796 1.84384 6.92556
upperneck 12.9087 1.38011 -7.03734
head 8.39145 0.226591 -3.33836
rclavicle 7.25564e-015 -1.27222e-014
rhumerus -37.1913 -0.58049 -79.1637
rradius 30.6143
rwrist -8.60125
rhand -11.4621 -0.585537
rfingers 7.12502
rthumb 14.5753 -30.0534
lclavicle 7.25564e-015 -1.27222e-014
lhumerus -38.6367 -2.00619 89.6559
lradius 28.7868
lwrist 3.1894
lhand -6.61188 -6.97505
lfingers 7.12502
lthumb 19.2441 22.0928
rfemur -21.5791 -4.35994 14.9888
rtibia 31.5049
rfoot 22.9785 -12.1264
rtoes -14.6176
lfemur 0.372847 -4.11253 -19.751
ltibia 28.2244
lfoot 7.92302 1.68947
ltoes -19.9511
316
root 0.489926 19.8597 -13.9686 6.12597 6.36678 3.7703
lowerback 3.36641 -1.36324 -2.98116
upperback -2.20785 -1.87916 2.55401
thorax -3.99059 -0.815046 4.44831
lowerneck -26.993 1.75394 6.7802
upperneck 13.7793 1.29177 -6.92063
head 8.76515 0.184185 -3.30634
rclavicle 2.68359e-015 7.95139e-016
rhumerus -37.1546 -0.341663 -79.1655
rradius 30.581
rwrist -8.58936
rhand -11.1416 -0.534677
rfingers 7.12502
rthumb 14.8841 -29.98
lclavicle 2.68359e-015 7.95139e-016
lhumerus -38.8808 -2.33628 89.5604
lradius 29.3727
lwrist 4.77408
lhand -6.80257 -6.45185
lfingers 7.12502
lthumb 19.0607 22.6342
rfemur -21.1884 -4.1515 14.7106
rtibia 31.7618
rfoot 23.8216 -12.2685
rtoes -12.51
lfemur -0.512608 -3.88363 -20.0359
ltibia 28.2155
lfoot 6.78268 1.80733
ltoes -20.3031
317
root 0.479227 19.9193 -13.8214 5.99953 6.08277 3.94546
lowerback 3.26797 -1.2202 -3.25015
upperback -2.14264 -1.70356 2.45007
thorax -3.88024 -0.725442 4.47658
lowerneck -27.4193 1.62433 6.64101
upperneck 14.6271 1.14968 -6.7952
head 9.11699 0.120133 -3.28039
rclavicle 3.02153e-014 -7.15625e-015
rhumerus -37.1 -0.122849 -79.1703
rradius 30.5664
rwrist -8.55537
rhand -10.9236 -0.514813
rfingers 7.12502
rthumb 15.094 -29.9445
lclavicle 3.02153e-014 -7.15625e-015
lhumerus -39.1327 -2.65515 89.4287
lradius 29.9512
lwrist 6.24764
lhand -7.1637 -6.04979
lfingers 7.12502
lthumb 18.7134 23.0701
rfemur -20.8081 -3.87049 14.4901
rtibia 32.1382
rfoot 24.2511 -12.6681
rtoes -10.4285
lfemur -1.45184 -3.66294 -20.2813
ltibia 28.2029
lfoot 5.60151 2.04451
ltoes -20.8035
318
root 0.465525 19.968 -13.6751 5.87776 5.84323 4.06878
lowerback 3.19069 -1.08829 -3.49415
upperback -2.09651 -1.54064 2.36086
thorax -3.80166 -0.641728 4.50863
lowerneck -27.9228 1.43386 6.4771
upperneck 15.647 0.93212 -6.65528
head 9.54107 0.0218189 -3.26281
rclavicle 1.85864e-014 9.54166e-015
rhumerus -37.0488 0.0887707 -79.1845
rradius 30.6011
rwrist -8.52822
rhand -10.8124 -0.519191
rfingers 7.12502
rthumb 15.2012 -29.9408
lclavicle 1.85864e-014 9.54166e-015
lhumerus -39.3828 -2.95083 89.2546
lradius 30.5154
lwrist 7.57798
lhand -7.61298 -5.79185
lfingers 7.12502
lthumb 18.2812 23.3691
rfemur -20.4113 -3.53823 14.366
rtibia 32.5899
rfoot 24.2884 -13.3241
rtoes -8.5265
lfemur -2.45718 -3.4583 -20.4478
ltibia 28.2262
lfoot 4.38733 2.41602
ltoes -21.2489
319
root 0.449665 20.006 -13.5303 5.75604 5.66205 4.13557
lowerback 3.15413 -0.971621 -3.69479
upperback -2.06529 -1.39599 2.28885
thorax -3.7611 -0.566913 4.53701
lowerneck -28.2085 1.22569 6.31809
upperneck 16.4209 0.687705 -6.50279
head 9.84495 -0.0833979 -3.2403
rclavicle 1.62506e-014 -1.11319e-014
rhumerus -36.989 0.283075 -79.1997
rradius 30.6855
rwrist -8.50733
rhand -10.79 -0.550146
rfingers 7.12502
rthumb 15.2228 -29.9701
lclavicle 1.62506e-014 -1.11319e-014
lhumerus -39.6151 -3.21297 89.045
lradius 31.0891
lwrist 8.80637
lhand -8.0812 -5.56071
lfingers 7.12502
lthumb 17.8307 23.6418
rfemur -19.9726 -3.18991 14.3381
rtibia 33.0569
rfoot 23.9407 -14.1702
rtoes -6.90482
lfemur -3.53612 -3.27444 -20.5345
ltibia 28.3081
lfoot 3.18593 2.90195
ltoes -21.6405
